<svg width="53" height="48" viewBox="0 0 53 48" fill="none" xmlns="http://www.w3.org/2000/svg">
<path d="M28.496 44.094H30.3115V45.9095H28.496V44.094Z" fill="currentColor"/>
<path d="M32.1272 45.9102H33.9427V47.7257H32.1272V45.9102Z" fill="currentColor"/>
<path d="M50.9668 1.88497H52.7823V3.70046H50.9668V1.88497Z" fill="currentColor"/>
<path d="M35.5688 5.41543H37.3843V7.23093H35.5688V5.41543Z" fill="currentColor"/>
<path d="M40.8731 16.1704H42.6886V19.6487H40.8731V16.1704Z" fill="currentColor"/>
<path d="M42.6886 19.6487H44.5042V21.408H42.6887L42.6886 19.6487Z" fill="currentColor"/>
<path d="M44.5042 21.408H46.3198V23.1673H44.5043L44.5042 21.408Z" fill="currentColor"/>
<path d="M0.103516 0H1.91901V1.8155H0.103516V0Z" fill="currentColor"/>
<path d="M5.55024 7.26175V5.44625V3.63005H3.73475V5.44625V7.26175H5.55024Z" fill="currentColor"/>
<path d="M42.7034 5.41543H40.8879V7.23093H37.3843L37.3844 14.3542H39.0723V16.1697H40.8878L40.8879 10.8641L47.9927 10.8633V9.04785L49.7862 9.04714V7.23164H50.9667L50.9668 3.70046L42.7035 3.70118L42.7034 5.41543Z" fill="currentColor"/>
<path d="M39.1028 30.2899H42.6771V28.5306H44.5043L44.5042 32.0753H42.6887V33.8346H44.5043H46.2094V35.5939H48.0249L48.025 33.8346H49.8405V32.0753H51.0341V30.3018H48.025V26.6859H49.951V24.9266H48.1354V23.1673H46.3198L46.3199 24.9266H40.8731V26.6859H39.1028V30.2899Z" fill="currentColor"/>
<path fill-rule="evenodd" clip-rule="evenodd" d="M26.7354 9.04714V7.23164V5.41543L28.4932 5.41472V3.59922H32.0499V5.41472L35.5688 5.41543L35.5687 3.59922L33.8094 3.59851V1.78301H24.9744V3.59851L23.197 3.59922V5.41472L21.4392 5.41543V7.23093L19.6165 7.23164V9.04714H16.1428V7.23164H14.2707V5.44625H7.2741V7.26175H5.55024L5.55036 9.04714L7.2741 9.04785V12.5712H8.9931V14.3708H12.5467V16.1294H16.1429L16.1428 14.3708H17.8839V16.1294H16.1429V19.6392H14.3448V23.1768H12.5467V32.099H14.3448V26.6504H16.0831L16.0857 33.8085H17.8916V37.5476H19.6165V40.9358H23.1499V42.7236H24.914V44.094H28.496V40.9358H32.078V39.1647H35.6186V37.3674H46.2094V35.5939L39.1028 35.6176V33.8441H35.6186V30.2899H37.3888V24.9266H40.8731V23.1673H39.1363V19.6487H37.3844L37.3888 16.1697L35.5688 16.1704V14.3708H33.8095V12.5712H32.0499V10.7716H28.4933V9.04785L26.7354 9.04714ZM30.2515 21.408V19.6392H23.1965V14.3708H24.9368V17.861H28.4933V16.1301H30.2515V17.861H32.0194V19.6487H33.8842V21.408H30.2515ZM24.914 37.3959H23.1499V33.8085H21.3859V32.099H19.6165L19.6192 23.1768H21.4383V24.9266H23.123V26.7618H24.914L24.9368 28.5496H26.705V30.2899H28.496V32.0682H30.287V33.8085H32.078V35.6176H30.287V33.8085H26.7296V37.3959H28.496V39.1884H24.914V37.3959Z" fill="currentColor"/>
</svg>
