<svg width="103" height="26" viewBox="0 0 103 26" fill="none" xmlns="http://www.w3.org/2000/svg">
<path d="M49.7211 5.64781H51.6782C51.8615 5.64781 52.0098 5.79612 52.0098 5.97946V20.8542C52.0098 21.0376 51.8615 21.1838 51.6782 21.1838H49.7211C49.5378 21.1838 49.3895 21.0355 49.3895 20.8542V14.2151H42.0666V20.8542C42.0666 21.0376 41.9183 21.1838 41.735 21.1838H39.7985C39.6152 21.1838 39.4669 21.0355 39.4669 20.8542V5.9774C39.4669 5.79407 39.6152 5.64575 39.7985 5.64575H41.735C41.9183 5.64575 42.0666 5.79407 42.0666 5.9774V11.9286H49.3895V5.9774C49.3895 5.79407 49.5378 5.64575 49.7211 5.64575" fill="#192319"/>
<path d="M65.5559 10.3279V20.8541C65.5559 21.0375 65.4076 21.1837 65.2263 21.1837H63.4671C63.2839 21.1837 63.1375 21.0354 63.1375 20.8541V19.7644C62.8719 20.2382 62.427 20.6234 61.8069 20.918C61.1846 21.2146 60.5048 21.3609 59.7655 21.3609C58.0929 21.3609 56.7849 20.8315 55.8372 19.7747C54.8895 18.7159 54.4158 17.3234 54.4158 15.591C54.4158 13.8586 54.8855 12.4846 55.8247 11.4176C56.764 10.3526 58.0619 9.81908 59.7201 9.81908C60.4306 9.81908 61.0921 9.96327 61.706 10.2517C62.3198 10.5401 62.7978 10.9211 63.1375 11.3949V10.3279C63.1375 10.1446 63.2858 9.99829 63.4671 9.99829H65.2263C65.4096 9.99829 65.5559 10.1466 65.5559 10.3279ZM57.7221 18.2421C58.3131 18.9158 59.0981 19.2515 60.0745 19.2515C61.0507 19.2515 61.8357 18.9158 62.427 18.2421C63.0179 17.5685 63.3146 16.6848 63.3146 15.589C63.3146 14.4931 63.0179 13.5908 62.427 12.9255C61.8357 12.2601 61.0507 11.9264 60.0745 11.9264C59.0981 11.9264 58.3131 12.2601 57.7221 12.9255C57.1308 13.5908 56.8342 14.4787 56.8342 15.589C56.8342 16.6993 57.1308 17.5685 57.7221 18.2421Z" fill="#192319"/>
<path d="M68.4953 20.8542V5.8002C68.4953 5.61686 68.6436 5.47061 68.8249 5.47061H70.5821C70.7654 5.47061 70.9114 5.61892 70.9114 5.8002V20.8521C70.9114 21.0354 70.7631 21.1838 70.5821 21.1838H68.8249C68.6416 21.1838 68.4953 21.0354 68.4953 20.8521" fill="#192319"/>
<path d="M80.7335 20.8686C80.7436 21.0004 80.6613 21.124 80.5336 21.1611C80.0576 21.295 79.5385 21.3609 78.9743 21.3609C77.8639 21.3609 76.9721 21.0499 76.3004 20.4278C75.6268 19.8057 75.291 18.8808 75.291 17.653V12.0603H73.6677C73.4844 12.0603 73.3381 11.912 73.3381 11.7287V10.3259C73.3381 10.1425 73.4864 9.99628 73.6677 9.99628H75.291V6.99702C75.291 6.81369 75.4393 6.66743 75.6206 6.66743H77.3778C77.5611 6.66743 77.7094 6.81574 77.7094 6.99702V9.99628H80.2637C80.447 9.99628 80.5934 10.1446 80.5934 10.3259V11.7287C80.5934 11.912 80.445 12.0603 80.2637 12.0603H77.7094V17.5212C77.7094 18.0691 77.8453 18.4873 78.1194 18.7757C78.3932 19.0641 78.7662 19.2083 79.2399 19.2083C79.6002 19.2083 79.9259 19.1671 80.2121 19.0868C80.412 19.0291 80.612 19.1733 80.6264 19.3813L80.7335 20.8707V20.8686Z" fill="#192319"/>
<path d="M92.9365 15.1687C92.9365 15.4468 92.9303 15.692 92.916 15.9062C92.9058 16.0545 92.782 16.1678 92.6337 16.1678H84.3487C84.4516 17.1298 84.7956 17.892 85.3807 18.4543C85.9658 19.0167 86.7012 19.2968 87.5891 19.2968C88.3287 19.2968 88.9425 19.13 89.4306 18.7983C89.8386 18.5202 90.1268 18.1474 90.2979 17.6777C90.3554 17.5171 90.5243 17.4244 90.6893 17.4655L92.3309 17.8796C92.5184 17.927 92.6275 18.1268 92.5638 18.3101C92.2404 19.2247 91.6782 19.9457 90.8745 20.473C89.9722 21.0643 88.8622 21.3609 87.5457 21.3609C85.8443 21.3609 84.4909 20.7944 83.4837 19.6635C82.4762 18.5326 81.9738 17.1751 81.9738 15.591C81.9738 14.0069 82.4579 12.6309 83.4282 11.5062C84.3961 10.3815 85.7332 9.81908 87.4346 9.81908C89.1359 9.81908 90.4975 10.3444 91.474 11.3949C92.4504 12.4455 92.9388 13.7041 92.9388 15.1687M84.4602 14.3262H90.3639C90.2898 13.5414 89.9971 12.9131 89.4861 12.4393C88.9755 11.9655 88.2915 11.7286 87.4326 11.7286C86.662 11.7286 86.0194 11.9552 85.5023 12.4064C84.9832 12.8575 84.6372 13.4981 84.4602 14.3262Z" fill="#192319"/>
<path d="M102.29 12.0315C102.282 12.1859 102.132 12.2869 101.984 12.2416C101.648 12.1365 101.263 12.0829 100.83 12.0829C99.9422 12.0829 99.2069 12.4929 98.6218 13.3148C98.0367 14.1367 97.7443 15.3685 97.7443 17.0103V20.8521C97.7443 21.0354 97.596 21.1817 97.4147 21.1817H95.6575C95.4742 21.1817 95.3259 21.0334 95.3259 20.8521V10.3279C95.3259 10.1446 95.4742 9.99829 95.6575 9.99829H97.4147C97.598 9.99829 97.7443 10.1466 97.7443 10.3279V12.1283C98.0387 11.4629 98.5127 10.9108 99.1654 10.4741C99.8165 10.0374 100.482 9.81908 101.164 9.81908C101.59 9.81908 101.959 9.87059 102.274 9.97151C102.354 9.99829 102.404 10.0766 102.4 10.161L102.292 12.0315H102.29Z" fill="#192319"/>
<path d="M99.9486 20.3433H100.26V21.2394H100.492V20.3433H100.807V20.1414H99.9486V20.3433Z" fill="#192319"/>
<path d="M101.874 20.1414L101.584 20.9469L101.284 20.1414H100.979V21.2394H101.201V20.504L101.481 21.2394H101.671L101.953 20.504V21.2394H102.173V20.1414H101.874Z" fill="#192319"/>
<path d="M24.8104 0.302246H18.5585C17.6295 0.302246 16.8734 1.05618 16.8734 1.98727V8.0167C16.8734 8.19592 16.7292 8.34011 16.5501 8.34011H10.4176V1.98727C10.4176 1.05618 9.66369 0.302246 8.73261 0.302246H2.48483C1.55374 0.302246 0.799805 1.05618 0.799805 1.98727V8.23917C0.799805 9.17024 1.55374 9.92213 2.48483 9.92213H8.83767V16.3779H2.48483C1.55374 16.3779 0.799805 17.1319 0.799805 18.063V24.3149C0.799805 25.246 1.55374 25.9999 2.48483 25.9999H8.73673C9.66574 25.9999 10.4218 25.246 10.4218 24.3149V17.9621H16.5542C16.7334 17.9621 16.8776 18.1083 16.8776 18.2855V24.3149C16.8776 25.246 17.6315 25.9999 18.5626 25.9999H24.8145C25.7456 25.9999 26.4995 25.246 26.4995 24.3149V1.98727C26.4995 1.05618 25.7456 0.302246 24.8145 0.302246M8.83767 23.8885C8.83767 24.1789 8.60282 24.4158 8.31237 24.4158H2.90918C2.61872 24.4158 2.38183 24.181 2.38183 23.8885V18.4853C2.38183 18.1948 2.61667 17.9579 2.90918 17.9579H8.83767V23.8885ZM8.83767 8.34011H2.90918C2.61872 8.34011 2.38183 8.10526 2.38183 7.81481V2.41162C2.38183 2.12117 2.61667 1.88633 2.90918 1.88633H8.31237C8.60282 1.88633 8.83767 2.12117 8.83767 2.41162V8.34011ZM24.9134 23.8885C24.9134 24.1789 24.6786 24.4158 24.386 24.4158H18.9828C18.6924 24.4158 18.4576 24.181 18.4576 23.8885V18.0609C18.4576 17.1298 17.7036 16.3759 16.7725 16.3759H10.4197V9.92008H16.7725C17.7016 9.92008 18.4576 9.16613 18.4576 8.23505V2.41162C18.4576 2.12117 18.6924 1.88633 18.9828 1.88633H24.386C24.6765 1.88633 24.9134 2.12117 24.9134 2.41162V23.8885Z" fill="#192319"/>
</svg>
