<svg width="70" height="20" viewBox="0 0 70 20" fill="none" xmlns="http://www.w3.org/2000/svg">
<path d="M21.2252 16.3857C21.4359 16.7369 21.5061 17.0881 21.5061 17.5096C21.5061 18.7037 20.5228 19.687 19.3287 19.687H13.9201C13.5689 19.687 13.2177 19.687 12.9367 19.6168C10.1973 19.1953 8.01982 17.2286 7.38765 14.5594C9.28416 17.2988 13.1474 18.0012 15.8868 16.0345C17.2917 15.0511 18.2048 13.5058 18.4155 11.82V11.5391L21.2252 16.3857Z" fill="#192319"/>
<path d="M9.07344 1.63505C9.28416 1.28384 9.56513 1.00288 9.84609 0.862397C10.8295 0.230226 12.1641 0.581432 12.726 1.56481C12.726 1.56481 12.726 1.63505 12.7962 1.63505L15.5356 6.41145C15.6761 6.69242 15.8868 7.04362 15.9571 7.32459C17.0107 9.92351 16.3785 12.8034 14.4118 14.7702C15.1142 13.2248 15.1844 11.4688 14.482 9.85327C13.2879 6.69242 9.70561 5.14711 6.615 6.41145C6.615 6.41145 6.54476 6.41145 6.54476 6.48169H6.33403L9.07344 1.63505Z" fill="#192319"/>
<path d="M2.54101 19.687C2.1898 19.687 1.76836 19.6168 1.48739 19.4061C0.433774 18.7739 0.0825676 17.4393 0.714738 16.4559L3.45414 11.6795C3.59463 11.3986 3.80535 11.1176 4.01607 10.8366C5.70186 8.65917 8.51151 7.74603 11.1807 8.51869C9.49489 8.65917 8.01982 9.5723 6.9662 10.9069C4.85897 13.6463 5.35066 17.5096 8.01982 19.6168L8.23055 19.7573L2.54101 19.687Z" fill="#192319"/>
<path d="M64.4235 6.55193H57.8208C56.9779 6.55193 56.5565 6.8329 56.416 7.53531L54.3088 16.0345C54.1683 16.6667 54.379 17.0179 55.2219 17.0179H61.8246L61.1924 19.6168H51.3586C48.7597 19.6168 47.9168 18.0012 48.6192 15.2618L50.305 8.23772C51.0074 5.49832 52.5527 3.88277 55.2219 3.88277H65.0557L64.4235 6.55193ZM49.7431 3.95301H43.8428L39.9796 19.6168H45.8798M38.8557 17.0179H31.3399L34.571 3.95301H28.6707L24.8075 19.6168H38.2235M67.5844 6.8329C66.6712 6.8329 65.9688 6.13049 65.9688 5.21735C65.9688 4.30422 66.6712 3.6018 67.5844 3.6018C68.4975 3.6018 69.1999 4.30422 69.1999 5.21735C69.1999 6.13049 68.4273 6.8329 67.5844 6.8329ZM67.5844 3.95301C66.8819 3.95301 66.3903 4.51494 66.32 5.14711V5.21735C66.32 5.91976 66.8819 6.48169 67.5844 6.48169C68.2868 6.48169 68.8487 5.91976 68.8487 5.21735C68.7785 4.51494 68.2868 3.95301 67.5844 3.95301ZM67.8653 6.06025L67.5141 5.42807H67.3034V6.06025H66.8819V4.30422H67.5844C67.8653 4.30422 68.1463 4.51494 68.1463 4.7959C68.1463 5.00663 68.0058 5.14711 67.8653 5.28759L68.2165 5.99L67.8653 6.06025ZM67.5844 4.65542H67.3034V5.07687H67.5844C67.7248 5.07687 67.7951 5.00663 67.7951 4.86615C67.8653 4.7959 67.7248 4.65542 67.5844 4.65542Z" fill="#192319"/>
</svg>
