<svg width="48" height="39" viewBox="0 0 48 39" fill="none" xmlns="http://www.w3.org/2000/svg">
<g clip-path="url(#clip0_4016_326)">
<path fill-rule="evenodd" clip-rule="evenodd" d="M22.5987 0.440541C26.4274 0.154247 34.191 1.31761 40.1036 5.6466C43.2066 7.91926 45.1601 10.704 46.0792 13.2013H46.0812C47.7904 17.8458 47.8198 23.7049 45.2843 28.2423C42.6373 32.9775 35.5673 39.3367 20.9933 38.9864C10.5259 38.7351 5.74739 34.3363 3.4415 30.9982C1.31507 28.1341 0.310243 24.4198 0.319431 21.464C0.201978 18.2742 1.2664 15.2157 2.48935 13.2159C6.7505 6.24726 15.5338 4.68573 19.5616 3.96984C20.6441 3.77743 21.3835 3.64627 21.5987 3.48742C22.14 3.08623 21.5389 2.77881 20.9093 2.45714C20.488 2.2419 20.0542 2.0195 19.9415 1.7589C19.4392 0.597708 21.9282 0.47472 22.4991 0.446401C22.5461 0.444071 22.5805 0.442108 22.5987 0.440541ZM23.7062 25.0851C22.8418 24.9615 21.8307 25.3571 21.2208 25.8146C20.6913 26.1618 20.0484 26.9315 19.6651 27.4611C19.3962 27.1212 18.9118 27.0366 18.4493 27.1046C18.2829 27.1294 17.5974 27.216 17.961 27.5421C18.4185 27.9522 18.3756 31.4879 18.3839 31.797C18.4385 33.0108 18.4645 35.366 20.1056 35.4659C20.8647 35.5122 20.8345 35.2623 20.5821 34.8595C20.2598 34.3447 20.1532 31.5749 20.213 30.6808C20.28 29.5403 20.8846 28.1002 21.6202 27.2111C22.3269 26.4363 23.4382 25.7105 24.1007 25.6476C24.4582 25.6136 24.4521 25.1572 23.7062 25.0841V25.0851ZM26.9972 27.6486C27.0095 26.0002 25.1435 26.0731 24.005 26.9816C22.5018 28.1818 21.9215 30.1547 21.8556 31.9288C21.6598 32.0246 21.266 32.0582 21.0353 32.0489C20.8343 32.0407 20.856 32.1764 20.8858 32.298C20.96 32.5977 21.2639 32.9755 21.8438 32.9405C22.122 35.3844 23.8998 35.8151 25.6358 34.7941C26.8673 34.0638 27.341 32.7212 27.4288 32.4259C27.5164 32.1312 27.4715 31.6616 26.8956 32.3097H26.8966C25.8787 33.4542 24.7301 33.9542 24.1583 33.4474C23.7987 33.129 23.8138 32.4483 23.8097 32.2433C25.7083 31.2429 26.9846 29.2969 26.9972 27.6486ZM22.4864 21.755C21.9486 21.4007 20.5505 21.3208 18.8849 21.9171V21.9191C16.9325 22.4682 13.0684 24.9988 10.7657 24.1446C10.5813 24.0756 10.5625 24.2285 10.6202 24.5314C10.8975 25.9776 12.402 25.9279 12.879 25.9073C12.7533 29.7029 12.9048 32.7002 13.9825 34.2755C14.6326 35.2253 15.7163 35.2352 16.1017 35.1085C16.1788 35.0868 16.2321 35.0267 16.1017 34.8673C15.807 34.5551 15.1898 33.4426 14.9786 32.0177C14.8818 31.3306 14.8107 30.5279 14.753 29.5616C14.7661 29.5589 16.059 29.2855 16.5479 29.0118C17.7471 28.3406 17.4415 27.2128 17.295 27.1163C17.1467 27.0205 17.1342 27.2617 16.4874 27.5089C15.9507 27.7139 14.9409 27.8367 14.7335 27.8605C14.7345 26.9829 14.7503 26.1755 14.7647 25.5821C15.8918 25.1927 17.4183 24.301 19.1417 23.3595C20.8651 22.418 22.9882 22.0886 22.4864 21.7579V21.755ZM32.13 26.7775C32.4284 25.5279 30.6939 24.6441 28.8087 25.8185C27.4714 26.688 27.6922 28.1808 28.0353 28.9288C28.299 29.5037 29.5869 30.8109 29.8331 31.2941C30.8048 33.1973 28.1618 33.8823 27.8673 33.0353C27.7704 32.7571 27.5015 33.0965 27.588 33.5509V33.5528C27.6889 34.853 30.0919 34.8615 31.42 33.4493C32.0485 32.7807 32.3512 31.2119 31.1241 29.7345L31.1251 29.7355C31.12 29.7293 30.1403 28.5356 29.9435 28.2853C29.1234 27.2376 29.8954 26.5472 30.4796 26.3956C31.2811 26.2133 31.6149 26.6233 31.7169 27.0694C31.7499 27.3404 32.0053 27.2998 32.13 26.7775ZM32.9493 19.2569C32.6373 19.2601 32.3146 19.3009 32.2013 19.4718C32.1312 19.5789 32.2327 19.566 32.3595 19.6886C33.1968 20.459 33.1316 26.1019 33.131 26.1593L33.1437 26.9347C33.1655 28.9765 33.0905 32.4412 32.0792 33.6505C31.7917 33.9946 34.1297 34.1753 34.547 31.3585C34.7252 30.1583 34.8157 28.4676 34.8126 26.3722V26.3712C34.7735 25.1099 35.6994 25.2477 35.8888 25.3702C36.1329 25.5289 36.2235 25.864 36.1524 26.8683C36.1215 28.3147 36.0014 31.1358 37.9874 31.0167C38.281 31.0064 39.0955 30.8632 39.4376 30.0782C39.5386 29.8475 39.4835 29.5992 39.2774 29.7208C38.6172 30.0194 38.0369 29.7888 37.9493 28.5939C37.9329 28.142 37.9495 26.4332 37.9464 26.1866C37.9289 24.6938 37.5613 24.1732 37.1173 23.9064C36.3457 23.4428 35.2804 23.9143 34.795 24.1925C34.7847 23.3994 34.7722 22.562 34.7608 21.6896C34.7608 20.6737 34.3103 19.2889 32.9493 19.2569ZM24.8194 28.423C25.2686 27.9676 25.8354 28.1225 25.4913 28.9777C25.3632 29.5052 24.4824 30.4271 23.8634 30.9112C24.0272 29.6142 24.4392 28.9206 24.8204 28.423H24.8194ZM42.1017 25.0724C42.0274 24.2503 41.5034 23.4691 40.6134 24.0851C40.3251 24.285 40.0945 24.742 40.2169 25.298C40.4549 26.3776 40.4643 27.874 39.9884 28.9444C39.8514 29.2524 39.7008 29.5213 40.0558 29.3888C41.1087 28.8273 42.2634 26.8785 42.1017 25.0724ZM12.5567 10.5069C12.5636 9.72294 11.7024 8.66787 10.1964 10.4191C9.41346 11.3258 8.85054 13.0131 8.51572 14.1515C8.28186 13.2326 7.81973 11.8219 7.13681 11.7423C6.51761 11.698 5.8096 12.4424 5.36142 13.2316C5.00927 13.8516 4.84288 14.4406 4.83799 14.4581C4.83527 14.4578 3.94148 14.3433 3.84775 15.128C3.82715 15.3042 4.01443 15.2792 4.18955 15.3595C4.43372 15.4697 4.51786 15.6773 4.66416 17.4689C4.9784 21.1656 5.37395 23.5036 5.99521 24.9357C6.44954 25.9751 7.04379 26.9423 8.75791 26.6818V26.6837C9.35033 26.5178 8.88314 26.1591 8.6915 25.9747C8.14443 25.4482 7.51848 24.0918 7.20322 22.7452C6.62626 20.2849 6.4105 18.2139 6.36826 16.1739C6.32396 13.6199 6.79168 14.1772 6.83701 14.2833C6.88652 14.3886 7.13981 15.0579 7.26963 15.4864C7.36029 15.7862 7.72977 17.028 7.81943 17.3722C8.1347 18.5787 8.33111 19.2569 8.66904 19.1827C8.95107 19.1203 9.07634 18.3511 9.32041 17.0978C9.41027 16.625 9.68241 15.3849 9.68955 15.3614C9.83688 14.7154 10.3378 13.1658 10.5841 13.2101C10.7804 13.2471 10.4933 15.7775 10.4933 17.3614C10.4871 18.744 10.389 21.2962 11.0431 22.131C11.4387 22.6358 12.08 22.8922 12.7765 22.7696C13.2534 22.6851 13.6542 22.4403 13.8829 22.088C13.9293 22.0118 14.0815 21.7358 14.0138 21.5812C13.9715 21.4864 13.646 21.6304 13.5831 21.6398C12.6043 21.7871 12.4357 20.3507 12.3966 20.0704C12.2606 18.7413 12.2998 16.7083 12.377 14.7374C12.4265 13.3094 12.5516 11.0107 12.5567 10.5069ZM24.713 11.5099C24.8633 11.1185 24.3065 11.1116 23.7843 11.2218C23.2063 11.3444 22.9604 11.5888 22.7667 11.798C22.2311 11.422 21.536 11.5993 21.2237 11.7765C20.1687 12.3658 18.78 13.9477 19.0304 17.8194C19.0458 18.1058 18.1711 19.1297 17.2667 19.6398C15.8688 20.4288 15.5935 19.0388 15.546 18.5626C16.3404 18.034 18.3978 16.178 18.131 13.6827C18.0062 12.5126 17.1046 12.4566 16.6358 12.505C14.5536 12.7193 13.2495 15.6644 13.5597 18.4503C13.3763 18.5657 12.9887 18.638 12.7579 18.6525C12.556 18.6648 12.5954 18.7967 12.6407 18.9142C12.7543 19.2036 13.1043 19.5469 13.6778 19.4532H13.6788C13.9374 20.9441 15.4731 22.5666 17.6202 20.9903C18.6436 20.2384 19.3157 19.069 19.3243 19.0558C19.3243 19.0568 19.7466 20.1075 20.6007 20.1075C21.3053 20.1063 22.0728 19.5071 22.4591 18.4894C22.6229 18.8488 22.8887 19.2131 23.3624 19.38C24.1701 19.6644 25.0109 19.3193 25.1788 18.6847C25.2066 18.5807 25.2175 18.4481 25.0733 18.4903C24.9117 18.5366 24.7162 18.5412 24.502 18.3693C24.019 17.9807 23.8721 17.0414 23.8741 16.0978C23.8783 13.5675 24.3225 12.5319 24.713 11.5099ZM28.4112 4.36046C28.095 4.27909 27.8631 4.46769 27.9854 4.67882C28.4975 5.51542 28.5517 6.38223 28.4806 8.28722C28.4095 10.1922 28.2169 10.7501 28.2169 10.7501C26.79 10.4854 25.8719 11.7062 25.503 12.9982C24.9406 14.937 24.9356 17.1467 25.67 18.3448C25.9101 18.7364 26.2475 19.0949 26.9718 19.0939C27.6548 19.0936 28.5013 18.3417 28.7784 17.3321C28.9 17.6948 29.086 18.1615 29.4991 18.3819C29.9667 18.6301 30.3446 18.5498 30.6124 18.4777C30.9666 18.3819 31.2457 18.1236 31.4044 17.8107C31.4961 17.6293 31.4067 17.5914 31.3067 17.6007H31.3058C30.1282 17.7077 29.6809 15.124 29.8849 12.4288C29.9704 11.2933 30.1925 8.74422 30.2862 7.73253C30.5117 5.29653 29.4805 4.57793 28.4112 4.36046ZM22.3712 13.0812C22.058 14.3824 22.0757 17.1417 21.5997 18.0402C21.1999 18.7942 20.3712 18.6516 20.3712 16.7013C20.3713 15.6367 20.8662 12.8867 22.3712 13.0812ZM35.4591 11.4083C34.9706 10.2475 33.9071 9.54136 32.5792 10.0626C31.8881 10.3339 31.3151 11.2837 31.0597 12.5548C30.5777 14.9819 31.2137 17.1027 32.4962 17.756L32.4972 17.7569C33.6315 18.3349 35.0428 17.543 35.5157 16.4591C36.035 15.2701 36.1133 12.964 35.4591 11.4083ZM42.0382 10.9327C41.4952 9.21626 40.1273 9.3342 40.2716 9.5382C40.4436 9.78146 40.7814 11.0055 40.836 12.0841C40.903 13.1072 40.7404 14.0606 40.5899 14.6241C40.4496 15.0483 40.3874 14.4871 40.3858 14.4728C40.2004 12.9782 39.8581 12.2065 39.6417 12.1319C39.4521 12.067 39.3218 12.2943 39.2208 12.6847C39.1322 13.0256 38.8907 13.6306 38.7218 14.0118C38.6148 14.2536 38.4911 14.5391 38.4005 14.546C38.2181 14.5048 38.5338 14.1612 38.2062 12.215C37.7693 10.0583 35.6698 9.67469 35.9024 10.1388C36.0704 10.4725 36.386 11.096 36.627 11.9005C36.8681 12.7052 37.0813 14.1109 36.7784 16.4249C36.6167 17.657 36.9956 17.778 37.2687 17.8234C37.5416 17.8687 37.7986 17.6678 37.9728 17.4298C38.3436 16.9209 38.794 16.1872 39.2638 15.1818C39.271 15.3058 39.3074 16.1573 39.4103 16.712C39.5133 17.2673 39.7724 17.6397 40.2091 17.6388C40.9509 17.6367 41.7891 16.0611 42.127 14.2169C42.4402 12.4194 42.1752 11.487 42.0382 10.9337V10.9327ZM28.2384 12.1691C28.2384 12.1691 28.2067 13.0654 28.1593 13.7814V13.7833C28.117 14.403 28.0714 16.2682 27.7882 16.9542C27.6563 17.2704 27.4359 17.4677 27.13 17.4337C26.7643 17.3933 26.4942 16.6938 26.4942 15.7667C26.4943 14.4781 26.758 13.6938 26.7931 13.5929C27.266 12.2304 28.2181 12.1702 28.2384 12.1691ZM16.046 14.6925C16.2335 14.4442 16.5148 14.3202 16.6817 14.4015C16.8229 14.4695 16.8722 14.6868 16.8155 15.0763C16.7503 15.5174 16.2611 16.4382 15.4269 17.2374C15.4238 15.9353 15.7905 15.0182 16.046 14.6915V14.6925ZM33.1202 11.3273C33.6385 11.1985 33.9777 12.2734 34.0333 13.2306C34.0817 14.0567 34.0003 14.9961 33.8644 15.5226C33.6088 16.5075 33.047 16.4129 32.8409 16.1564C32.4413 15.6524 32.2284 14.3425 32.42 12.8487C32.5765 11.6375 32.993 11.3606 33.1212 11.3273H33.1202ZM38.214 12.1818L38.2169 12.172L38.214 12.1612V12.1818Z" fill="currentColor"/>
</g>
<defs>
<clipPath id="clip0_4016_326">
<rect width="46.9772" height="38.6009" fill="white" transform="translate(0.311035 0.39917)"/>
</clipPath>
</defs>
</svg>
